<?xml version="1.0" encoding="utf-8"?>
<!-- Generator: Adobe Illustrator 16.0.0, SVG Export Plug-In . SVG Version: 6.00 Build 0)  -->
<!DOCTYPE svg PUBLIC "-//W3C//DTD SVG 1.1//EN" "http://www.w3.org/Graphics/SVG/1.1/DTD/svg11.dtd">
<svg version="1.1" id="Calque_1" xmlns="http://www.w3.org/2000/svg" xmlns:xlink="http://www.w3.org/1999/xlink" x="0px" y="0px"
	 width="704.696px" height="649.224px" viewBox="-64.495 -19.709 704.696 649.224"
	 enable-background="new -64.495 -19.709 704.696 649.224" xml:space="preserve">
<polygon fill="#E74C3C" points="468,567 108,567 158.687,503.115 419.44,503.115 "/>
<polygon fill="#E74C3C" points="99,567 0,225 81,252 153,495 "/>
<polygon fill="#E74C3C" points="576,225 477,567 422.493,495.001 495,252 "/>
<polygon fill="#E74C3C" points="0,216 288,0 288,90 81,243 "/>
<polygon fill="#E74C3C" points="297,0 576,216 495,243 297,90 "/>
<line fill="none" stroke="#E74C3C" stroke-width="7" stroke-miterlimit="10" x1="176.725" y1="163.574" x2="74.215" y2="28.716"/>
<line fill="none" stroke="#E74C3C" stroke-width="7" stroke-miterlimit="10" x1="405.997" y1="163.574" x2="511.252" y2="23.233"/>
<line fill="none" stroke="#E74C3C" stroke-width="7" stroke-miterlimit="10" x1="467.547" y1="375.094" x2="612.286" y2="423.399"/>
<line fill="none" stroke="#E74C3C" stroke-width="7" stroke-miterlimit="10" x1="292.584" y1="503.115" x2="292.584" y2="577.666"/>
<line fill="none" stroke="#E74C3C" stroke-width="7" stroke-miterlimit="10" x1="116.582" y1="375.094" x2="-39.786" y2="427.015"/>
<path fill="none" stroke="#E74C3C" stroke-width="7" stroke-miterlimit="10" d="M636.702,428.644
	c0,6.745-5.461,12.208-12.209,12.208c-6.744,0-12.207-5.463-12.207-12.208c0-6.746,5.463-12.209,12.207-12.209
	C631.241,416.435,636.702,421.897,636.702,428.644z"/>
<path fill="none" stroke="#E74C3C" stroke-width="7" stroke-miterlimit="10" d="M528.7,16.508c0,6.745-5.463,12.208-12.209,12.208
	s-12.209-5.463-12.209-12.208c0-6.747,5.463-12.21,12.209-12.21S528.7,9.761,528.7,16.508z"/>
<path fill="none" stroke="#E74C3C" stroke-width="7" stroke-miterlimit="10" d="M77.5,17.508c0,6.745-5.462,12.208-12.209,12.208
	c-6.745,0-12.208-5.463-12.208-12.208c0-6.747,5.463-12.21,12.208-12.21C74.707,5.298,77.5,10.759,77.5,17.508z"/>
<path fill="none" stroke="#E74C3C" stroke-width="7" stroke-miterlimit="10" d="M-36.578,430.645
	c0,6.745-5.462,12.208-12.209,12.208c-6.745,0-12.208-5.463-12.208-12.208c0-6.747,5.463-12.21,12.208-12.21
	C-42.04,418.435-36.578,423.897-36.578,430.645z"/>
<path fill="none" stroke="#E74C3C" stroke-width="7" stroke-miterlimit="10" d="M304.793,589.876
	c0,6.745-5.463,12.208-12.209,12.208s-12.208-5.463-12.208-12.208c0-6.747,5.463-12.21,12.208-12.21
	C299.33,577.666,304.793,583.129,304.793,589.876z"/>
<polygon fill="none" points="165.178,489.082 96.382,252.752 293.584,105.516 479.786,251.752 411.99,489.082 "/>
<text transform="matrix(1 0 0 1 206.0117 230.3159)"><tspan x="0" y="0" fill="#ECF0F1" font-family="'AquaGrotesque'" font-size="35">TitreTest</tspan><tspan x="-98.004" y="45.2" fill="#ECF0F1" font-family="'AquaGrotesque'" font-size="21">Lorem</tspan><tspan x="-26.039" y="45.2" fill="#ECF0F1" font-family="'AquaGrotesque'" font-size="21" letter-spacing="8"> </tspan><tspan x="-7.277" y="45.2" fill="#ECF0F1" font-family="'AquaGrotesque'" font-size="21">ipsum</tspan><tspan x="56.814" y="45.2" fill="#ECF0F1" font-family="'AquaGrotesque'" font-size="21" letter-spacing="8"> </tspan><tspan x="75.576" y="45.2" fill="#ECF0F1" font-family="'AquaGrotesque'" font-size="21">dolor</tspan><tspan x="135.719" y="45.2" fill="#ECF0F1" font-family="'AquaGrotesque'" font-size="21" letter-spacing="8"> </tspan><tspan x="154.481" y="45.2" fill="#ECF0F1" font-family="'AquaGrotesque'" font-size="21">sit</tspan><tspan x="180.206" y="45.2" fill="#ECF0F1" font-family="'AquaGrotesque'" font-size="21" letter-spacing="8"> </tspan><tspan x="198.967" y="45.2" fill="#ECF0F1" font-family="'AquaGrotesque'" font-size="21">amet</tspan><tspan x="257.641" y="45.2" fill="#ECF0F1" font-family="'MyriadPro-Regular'" font-size="21">,</tspan><tspan x="261.988" y="45.2" fill="#ECF0F1" font-family="'AquaGrotesque'" font-size="21"> </tspan><tspan x="-90.668" y="70.4" fill="#ECF0F1" font-family="'AquaGrotesque'" font-size="21">consectetur</tspan><tspan x="44.843" y="70.4" fill="#ECF0F1" font-family="'AquaGrotesque'" font-size="21" letter-spacing="17"> </tspan><tspan x="72.463" y="70.4" fill="#ECF0F1" font-family="'AquaGrotesque'" font-size="21">adipiscing</tspan><tspan x="185.42" y="70.4" fill="#ECF0F1" font-family="'AquaGrotesque'" font-size="21" letter-spacing="17"> </tspan><tspan x="213.042" y="70.4" fill="#ECF0F1" font-family="'AquaGrotesque'" font-size="21">elit. </tspan><tspan x="-83.333" y="95.6" fill="#ECF0F1" font-family="'AquaGrotesque'" font-size="21">Nulla</tspan><tspan x="-28.524" y="95.6" fill="#ECF0F1" font-family="'AquaGrotesque'" font-size="21" letter-spacing="3"> </tspan><tspan x="-14.689" y="95.6" fill="#ECF0F1" font-family="'AquaGrotesque'" font-size="21">ultrices</tspan><tspan x="68.512" y="95.6" fill="#ECF0F1" font-family="'AquaGrotesque'" font-size="21" letter-spacing="3"> </tspan><tspan x="82.347" y="95.6" fill="#ECF0F1" font-family="'AquaGrotesque'" font-size="21">interdum</tspan><tspan x="184.09" y="95.6" fill="#ECF0F1" font-family="'AquaGrotesque'" font-size="21" letter-spacing="3"> </tspan><tspan x="197.925" y="95.6" fill="#ECF0F1" font-family="'AquaGrotesque'" font-size="21">eros </tspan><tspan x="-75.998" y="120.8" fill="#ECF0F1" font-family="'AquaGrotesque'" font-size="21">id</tspan><tspan x="-55.46" y="120.8" fill="#ECF0F1" font-family="'AquaGrotesque'" font-size="21" letter-spacing="1">  </tspan><tspan x="-31.642" y="120.8" fill="#ECF0F1" font-family="'AquaGrotesque'" font-size="21">mauriortor</tspan><tspan x="92.886" y="120.8" fill="#ECF0F1" font-family="'AquaGrotesque'" font-size="21" letter-spacing="1"> </tspan><tspan x="104.795" y="120.8" fill="#ECF0F1" font-family="'AquaGrotesque'" font-size="21">eget</tspan><tspan x="158.344" y="120.8" fill="#ECF0F1" font-family="'AquaGrotesque'" font-size="21" letter-spacing="1"> </tspan><tspan x="170.253" y="120.8" fill="#ECF0F1" font-family="'AquaGrotesque'" font-size="21">condi</tspan><tspan x="231.426" y="120.8" fill="#ECF0F1" font-family="'AquaGrotesque'" font-size="21">-</tspan><tspan x="-68.662" y="146" fill="#ECF0F1" font-family="'AquaGrotesque'" font-size="21">mentum</tspan><tspan x="22.267" y="146" fill="#ECF0F1" font-family="'AquaGrotesque'" font-size="21" letter-spacing="8"> </tspan><tspan x="40.844" y="146" fill="#ECF0F1" font-family="'AquaGrotesque'" font-size="21">bibendum</tspan><tspan x="151.071" y="146" fill="#ECF0F1" font-family="'MyriadPro-Regular'" font-size="21">,</tspan><tspan x="155.417" y="146" fill="#ECF0F1" font-family="'AquaGrotesque'" font-size="21" letter-spacing="8"> </tspan><tspan x="173.994" y="146" fill="#ECF0F1" font-family="'AquaGrotesque'" font-size="21">tellus </tspan><tspan x="-61.326" y="171.2" fill="#ECF0F1" font-family="'AquaGrotesque'" font-size="21">nunc</tspan><tspan x="-9.141" y="171.2" fill="#ECF0F1" font-family="'AquaGrotesque'" font-size="21" letter-spacing="13"> </tspan><tspan x="15.073" y="171.2" fill="#ECF0F1" font-family="'AquaGrotesque'" font-size="21">luctus</tspan><tspan x="79.878" y="171.2" fill="#ECF0F1" font-family="'AquaGrotesque'" font-size="21" letter-spacing="13"> </tspan><tspan x="104.092" y="171.2" fill="#ECF0F1" font-family="'AquaGrotesque'" font-size="21">mpharetra </tspan><tspan x="-53.991" y="196.4" fill="#ECF0F1" font-family="'AquaGrotesque'" font-size="21">libero</tspan><tspan x="12.284" y="196.4" fill="#ECF0F1" font-family="'AquaGrotesque'" font-size="21" letter-spacing="-1"> </tspan><tspan x="21.12" y="196.4" fill="#ECF0F1" font-family="'AquaGrotesque'" font-size="21">nibh</tspan><tspan x="67.655" y="196.4" fill="#ECF0F1" font-family="'AquaGrotesque'" font-size="21" letter-spacing="-1"> </tspan><tspan x="76.491" y="196.4" fill="#ECF0F1" font-family="'AquaGrotesque'" font-size="21">ut</tspan><tspan x="98.961" y="196.4" fill="#ECF0F1" font-family="'AquaGrotesque'" font-size="21" letter-spacing="-1"> </tspan><tspan x="107.796" y="196.4" fill="#ECF0F1" font-family="'AquaGrotesque'" font-size="21">massa.</tspan><tspan x="182.408" y="196.4" fill="#ECF0F1" font-family="'AquaGrotesque'" font-size="21" letter-spacing="-1"> </tspan><tspan x="191.244" y="196.4" fill="#ECF0F1" font-family="'AquaGrotesque'" font-size="21">In</tspan><tspan x="209.829" y="196.4" fill="#ECF0F1" font-family="'AquaGrotesque'" font-size="21">-</tspan><tspan x="-46.654" y="221.6" fill="#ECF0F1" font-family="'AquaGrotesque'" font-size="21">teger</tspan><tspan x="17.689" y="221.6" fill="#ECF0F1" font-family="'AquaGrotesque'" font-size="21" letter-spacing="11"> </tspan><tspan x="39.799" y="221.6" fill="#ECF0F1" font-family="'AquaGrotesque'" font-size="21">vehicula</tspan><tspan x="132.787" y="221.6" fill="#ECF0F1" font-family="'AquaGrotesque'" font-size="21" letter-spacing="11"> </tspan><tspan x="154.897" y="221.6" fill="#ECF0F1" font-family="'AquaGrotesque'" font-size="21">arcu.</tspan></text>
</svg>
