<?xml version="1.0" encoding="utf-8"?>
<!-- Generator: Adobe Illustrator 16.0.0, SVG Export Plug-In . SVG Version: 6.00 Build 0)  -->
<!DOCTYPE svg PUBLIC "-//W3C//DTD SVG 1.1//EN" "http://www.w3.org/Graphics/SVG/1.1/DTD/svg11.dtd">
<svg version="1.1" id="background" xmlns="http://www.w3.org/2000/svg" xmlns:xlink="http://www.w3.org/1999/xlink" x="0px" y="0px"
	 width="800px" height="800px" viewBox="0 0 800 800" enable-background="new 0 0 800 800" xml:space="preserve">
<line fill="none" stroke="#B2B2B0" stroke-width="0.25" stroke-miterlimit="10" x1="666.347" y1="479.869" x2="723.76" y2="461.798"/>
<path fill="#171714" d="M726.514,460.197c0.873,1.912,0.028,4.171-1.882,5.043c-1.914,0.873-4.171,0.029-5.044-1.882
	c-0.872-1.911-0.031-4.17,1.884-5.044C723.381,457.443,725.641,458.285,726.514,460.197z"/>
<line fill="none" stroke="#B2B2B0" stroke-width="0.25" stroke-miterlimit="10" x1="66.27" y1="761.458" x2="302.564" y2="616.748"/>
<line fill="none" stroke="#B2B2B0" stroke-width="0.25" stroke-miterlimit="10" x1="70.01" y1="762.169" x2="205.294" y2="631.207"/>
<line fill="none" stroke="#B2B2B0" stroke-width="0.25" stroke-miterlimit="10" x1="69.298" y1="765.908" x2="155.58" y2="531.264"/>
<line fill="none" stroke="#B2B2B0" stroke-width="0.25" stroke-miterlimit="10" x1="69.298" y1="765.908" x2="148.029" y2="396.044"/>
<line fill="none" stroke="#B2B2B0" stroke-width="0.25" stroke-miterlimit="10" x1="70.01" y1="762.169" x2="203.933" y2="528.272"/>
<line fill="none" stroke="#B2B2B0" stroke-width="0.25" stroke-miterlimit="10" x1="70.01" y1="762.169" x2="353.378" y2="673.959"/>
<circle fill="#171714" cx="70.009" cy="762.169" r="3.806"/>
<line fill="none" stroke="#B2B2B0" stroke-width="0.25" stroke-miterlimit="10" x1="64.286" y1="315.758" x2="130.533" y2="363.07"/>
<line fill="none" stroke="#B2B2B0" stroke-width="0.25" stroke-miterlimit="10" x1="64.286" y1="315.758" x2="49.229" y2="237.402"/>
<circle fill="#171714" cx="64.297" cy="315.733" r="3.807"/>
<circle fill="#171714" cx="50.42" cy="237.413" r="3.807"/>
<line fill="none" stroke="#B2B2B0" stroke-width="0.25" stroke-miterlimit="10" x1="294.776" y1="168.337" x2="279.719" y2="89.981"/>
<circle fill="#171714" cx="280.91" cy="89.992" r="3.807"/>
<g>
	<path fill="#FFFFFF" d="M213.191,392.174c-0.121,0.01-0.241,0.001-0.363-0.002l34.647,59.989c0.121-0.01,0.242-0.003,0.363,0.003
		L213.191,392.174z"/>
	<path fill="#FFFFFF" d="M138.717,582.094c0.095,0.076,0.185,0.156,0.269,0.242l106.711-124.223
		c-0.096-0.073-0.195-0.145-0.282-0.227L138.717,582.094z"/>
	<path fill="#FFFFFF" d="M169.521,598.622c0.027-0.12,0.049-0.238,0.089-0.354l-30.753-11.155c-0.103,0.093-0.203,0.189-0.317,0.271
		L169.521,598.622z"/>
	<path fill="#FFFFFF" d="M171.353,602.361l-28.233,102.125c0.134-0.065,0.276-0.107,0.417-0.151l28.152-101.827
		c-0.023-0.006-0.045-0.01-0.067-0.017C171.525,602.455,171.443,602.403,171.353,602.361z"/>
	<path fill="#FFFFFF" d="M216.081,389.991c0.628-1.732-0.267-3.646-1.998-4.271c-1.731-0.63-3.645,0.266-4.273,1.998
		c-0.628,1.731,0.267,3.642,1.999,4.271c0.337,0.121,0.68,0.17,1.021,0.184c0.122,0.003,0.242,0.012,0.363,0.002
		C214.46,392.08,215.618,391.267,216.081,389.991z"/>
	<path fill="#FFFFFF" d="M248.858,452.347c-0.337-0.122-0.68-0.171-1.02-0.183c-0.122-0.006-0.243-0.013-0.363-0.003
		c-1.27,0.095-2.428,0.91-2.89,2.184c-0.465,1.279-0.094,2.656,0.831,3.542c0.087,0.082,0.186,0.153,0.282,0.227
		c0.266,0.205,0.555,0.385,0.885,0.506c1.732,0.627,3.644-0.269,4.271-2C251.483,454.888,250.589,452.975,248.858,452.347z"/>
	<path fill="#FFFFFF" d="M137.752,581.528c-1.733-0.628-3.645,0.268-4.272,1.998c-0.628,1.732,0.265,3.646,1.998,4.274
		c1.068,0.387,2.202,0.193,3.062-0.418c0.114-0.081,0.214-0.178,0.317-0.271c0.385-0.352,0.702-0.787,0.893-1.312
		c0.451-1.246,0.106-2.578-0.764-3.465c-0.084-0.086-0.174-0.166-0.269-0.242C138.434,581.86,138.117,581.661,137.752,581.528z"/>
	<path fill="#FFFFFF" d="M171.353,602.361c0.091,0.042,0.173,0.094,0.269,0.13c0.022,0.007,0.044,0.011,0.067,0.017
		c1.713,0.582,3.584-0.307,4.204-2.016c0.628-1.732-0.265-3.646-1.997-4.272c-1.733-0.629-3.646,0.267-4.272,1.998
		c-0.006,0.016-0.007,0.033-0.013,0.05c-0.04,0.116-0.062,0.234-0.089,0.354C169.176,600.141,169.931,601.696,171.353,602.361z"/>
	<path fill="#FFFFFF" d="M143.119,704.486c-0.771,0.36-1.403,1.015-1.716,1.878c-0.628,1.732,0.267,3.646,1.998,4.273
		c1.731,0.628,3.645-0.267,4.273-1.997c0.628-1.732-0.267-3.647-1.998-4.274c-0.718-0.261-1.464-0.244-2.14-0.031
		C143.395,704.379,143.253,704.421,143.119,704.486z"/>
</g>
<g>
	<path fill="#FFFFFF" d="M738.451,275.849c-0.115-0.039-0.222-0.094-0.333-0.145l8.351,68.771c0.114,0.039,0.223,0.092,0.333,0.146
		L738.451,275.849z"/>
	<path fill="#FFFFFF" d="M595.47,421.354c0.058,0.107,0.108,0.216,0.152,0.328l146.876-72.429c-0.059-0.105-0.122-0.209-0.171-0.319
		L595.47,421.354z"/>
	<path fill="#FFFFFF" d="M617.325,448.638c0.072-0.1,0.139-0.2,0.222-0.291l-23.917-22.321c-0.13,0.045-0.261,0.096-0.396,0.125
		L617.325,448.638z"/>
	<path fill="#FFFFFF" d="M617.544,452.796l-66.019,82.875c0.149-0.008,0.296,0.009,0.443,0.024l65.827-82.633
		c-0.02-0.015-0.038-0.027-0.057-0.042C617.666,452.95,617.61,452.87,617.544,452.796z"/>
	<path fill="#FFFFFF" d="M741.966,274.973c1.257-1.348,1.185-3.458-0.163-4.713c-1.346-1.258-3.457-1.185-4.715,0.162
		c-1.256,1.347-1.183,3.455,0.164,4.713c0.263,0.244,0.559,0.423,0.866,0.569c0.111,0.051,0.218,0.106,0.333,0.145
		C739.656,276.259,741.04,275.965,741.966,274.973z"/>
	<path fill="#FFFFFF" d="M747.668,345.188c-0.264-0.245-0.559-0.423-0.866-0.567c-0.11-0.053-0.219-0.107-0.333-0.146
		c-1.205-0.411-2.592-0.115-3.516,0.875c-0.93,0.995-1.128,2.407-0.626,3.584c0.049,0.109,0.112,0.214,0.171,0.319
		c0.164,0.292,0.359,0.571,0.617,0.812c1.347,1.256,3.457,1.182,4.713-0.165C749.085,348.555,749.014,346.444,747.668,345.188z"/>
	<path fill="#FFFFFF" d="M594.804,420.456c-1.349-1.257-3.457-1.183-4.714,0.163c-1.258,1.347-1.185,3.457,0.162,4.715
		c0.83,0.774,1.949,1.041,2.981,0.816c0.136-0.029,0.267-0.08,0.396-0.125c0.492-0.172,0.956-0.447,1.336-0.855
		c0.903-0.97,1.109-2.33,0.656-3.487c-0.044-0.112-0.095-0.221-0.152-0.328C595.301,421.029,595.087,420.721,594.804,420.456z"/>
	<path fill="#FFFFFF" d="M617.544,452.796c0.066,0.074,0.122,0.154,0.195,0.225c0.019,0.015,0.037,0.027,0.057,0.042
		c1.348,1.207,3.417,1.123,4.657-0.206c1.258-1.347,1.186-3.457-0.161-4.713c-1.347-1.258-3.458-1.185-4.714,0.163
		c-0.013,0.012-0.02,0.027-0.031,0.04c-0.083,0.091-0.149,0.191-0.222,0.291C616.412,449.899,616.497,451.627,617.544,452.796z"/>
	<path fill="#FFFFFF" d="M551.525,535.671c-0.85,0.029-1.688,0.383-2.315,1.055c-1.257,1.347-1.184,3.458,0.163,4.715
		c1.346,1.256,3.458,1.184,4.713-0.162c1.258-1.347,1.186-3.46-0.161-4.716c-0.558-0.521-1.251-0.798-1.956-0.867
		C551.821,535.68,551.675,535.663,551.525,535.671z"/>
</g>
<g>
	<path fill="#FFFFFF" d="M627.734,571.874c0.001-0.111,0.008-0.221,0.022-0.33l-122.559,8.843c0.025,0.107,0.055,0.215,0.069,0.323
		L627.734,571.874z"/>
	<path fill="#FFFFFF" d="M558.727,672.455c0.084,0.056,0.174,0.101,0.254,0.163c0.008,0.007,0.013,0.014,0.02,0.019l70.614-97.932
		c-0.104-0.043-0.207-0.081-0.307-0.137L558.727,672.455z"/>
	<path fill="#FFFFFF" d="M503.543,583.807c-0.101,0.046-0.2,0.095-0.304,0.128l52.213,88.548c0.093-0.06,0.183-0.123,0.278-0.171
		L503.543,583.807z"/>
	<path fill="#FFFFFF" d="M498.535,446.34c-0.104,0.062-0.212,0.117-0.321,0.165l3.146,131.724c0.108-0.033,0.217-0.051,0.326-0.072
		L498.535,446.34z"/>
	<path fill="#FFFFFF" d="M457.468,540.412c0.104,0.028,0.205,0.072,0.308,0.112l39.09-93.752c-0.113-0.003-0.226-0.019-0.337-0.035
		L457.468,540.412z"/>
	<path fill="#FFFFFF" d="M372.857,511.992c-0.022,0.105-0.056,0.208-0.092,0.312l81.291,29.591c0.052-0.098,0.117-0.19,0.179-0.281
		L372.857,511.992z"/>
	<path fill="#FFFFFF" d="M633.6,572.8c-0.034,0.109-0.079,0.219-0.126,0.325l81.912,72.207c0.091-0.068,0.182-0.133,0.278-0.19
		L633.6,572.8z"/>
	<path fill="#FFFFFF" d="M751.503,603.367l-33.034,41.625c0.098,0.046,0.192,0.104,0.289,0.162l32.933-41.498
		C751.626,603.561,751.556,603.468,751.503,603.367z"/>
	<path fill="#FFFFFF" d="M555.03,677.125l-25.251,29.126c0.074,0.084,0.139,0.177,0.2,0.268l25.292-29.17
		c-0.009-0.008-0.02-0.012-0.028-0.019C555.164,677.268,555.103,677.192,555.03,677.125z"/>
	<path fill="#FFFFFF" d="M371.806,508.962c-1.301-1.032-3.192-0.815-4.224,0.486c-1.032,1.301-0.815,3.193,0.487,4.225
		c1.3,1.032,3.192,0.814,4.224-0.486c0.215-0.271,0.364-0.572,0.472-0.883c0.036-0.104,0.07-0.206,0.092-0.312
		C373.109,510.897,372.745,509.706,371.806,508.962z"/>
	<path fill="#FFFFFF" d="M454.342,541.447c-0.042,0.054-0.069,0.11-0.107,0.166c-0.062,0.091-0.127,0.184-0.179,0.281
		c-0.68,1.258-0.388,2.857,0.772,3.777c1.3,1.032,3.192,0.815,4.224-0.484c1.034-1.302,0.815-3.194-0.485-4.227
		c-0.245-0.194-0.515-0.329-0.791-0.437c-0.103-0.04-0.203-0.084-0.308-0.112C456.348,540.116,455.109,540.482,454.342,541.447z"/>
	<path fill="#FFFFFF" d="M499.338,445.646c1.032-1.301,0.816-3.191-0.485-4.224c-1.303-1.033-3.193-0.815-4.226,0.486
		c-1.032,1.301-0.814,3.191,0.486,4.225c0.425,0.336,0.914,0.527,1.415,0.604c0.111,0.017,0.224,0.032,0.337,0.035
		c0.463,0.017,0.922-0.075,1.349-0.268c0.109-0.048,0.218-0.103,0.321-0.165C498.833,446.16,499.108,445.934,499.338,445.646z"/>
	<path fill="#FFFFFF" d="M504.643,582.957c0.524-0.66,0.723-1.473,0.625-2.247c-0.015-0.108-0.044-0.216-0.069-0.323
		c-0.152-0.631-0.495-1.221-1.043-1.654c-0.724-0.574-1.629-0.749-2.469-0.576c-0.109,0.021-0.218,0.039-0.326,0.072
		c-0.544,0.176-1.046,0.507-1.429,0.99c-1.032,1.3-0.815,3.192,0.486,4.225c0.827,0.655,1.891,0.803,2.821,0.491
		c0.104-0.033,0.203-0.082,0.304-0.128C503.957,583.614,504.339,583.34,504.643,582.957z"/>
	<path fill="#FFFFFF" d="M558.727,672.455c-0.922-0.592-2.063-0.629-2.996-0.144c-0.096,0.048-0.186,0.111-0.278,0.171
		c-0.255,0.17-0.494,0.37-0.695,0.623c-0.97,1.222-0.824,2.958,0.273,4.02c0.072,0.067,0.134,0.143,0.213,0.205
		c0.009,0.007,0.02,0.011,0.028,0.019c1.3,1.007,3.171,0.788,4.196-0.505c1.027-1.293,0.813-3.171-0.468-4.207
		c-0.007-0.005-0.012-0.012-0.02-0.019C558.9,672.556,558.811,672.511,558.727,672.455z"/>
	<path fill="#FFFFFF" d="M529.401,705.883c-1.303-1.033-3.194-0.814-4.227,0.487c-1.032,1.3-0.815,3.19,0.487,4.225
		c1.301,1.032,3.19,0.813,4.223-0.487c0.849-1.069,0.841-2.527,0.095-3.589c-0.062-0.091-0.126-0.184-0.2-0.268
		C529.663,706.121,529.542,705.996,529.401,705.883z"/>
	<path fill="#FFFFFF" d="M632.599,569.569c-1.302-1.032-3.193-0.812-4.226,0.487c-0.354,0.445-0.549,0.963-0.616,1.487
		c-0.015,0.109-0.021,0.219-0.022,0.33c-0.015,0.902,0.363,1.802,1.126,2.408c0.142,0.112,0.292,0.202,0.447,0.286
		c0.1,0.056,0.203,0.094,0.307,0.137c1.202,0.482,2.622,0.156,3.469-0.91c0.166-0.21,0.288-0.436,0.391-0.67
		c0.047-0.106,0.092-0.216,0.126-0.325C633.949,571.652,633.595,570.361,632.599,569.569z"/>
	<path fill="#FFFFFF" d="M715.664,645.142c-0.097,0.058-0.188,0.122-0.278,0.19c-0.193,0.146-0.378,0.313-0.535,0.513
		c-1.033,1.3-0.815,3.192,0.485,4.224c1.301,1.032,3.192,0.815,4.225-0.485s0.815-3.193-0.484-4.226
		c-0.102-0.08-0.212-0.14-0.318-0.203c-0.097-0.058-0.191-0.116-0.289-0.162C717.561,644.571,716.51,644.636,715.664,645.142z"/>
	<path fill="#FFFFFF" d="M752.287,604.315c1.301,1.032,3.19,0.812,4.223-0.487c1.034-1.302,0.816-3.193-0.483-4.225
		c-1.302-1.033-3.192-0.814-4.225,0.485c-0.767,0.966-0.842,2.255-0.299,3.278c0.053,0.101,0.123,0.193,0.188,0.289
		C751.856,603.896,752.047,604.124,752.287,604.315z"/>
</g>
<g>
	<path fill="#FFFFFF" d="M689.191,124.433l13.811-44.929c-0.129-0.017-0.254-0.042-0.378-0.071l-13.808,44.925l-32.415-6.446
		c0.026,0.132,0.033,0.266,0.045,0.398l32.256,6.417l-11.287,36.726c0.13,0.002,0.261,0.014,0.392,0.03l11.273-36.682l26.883,5.348
		c0.018-0.126,0.048-0.25,0.081-0.375L689.191,124.433z"/>
	<path fill="#FFFFFF" d="M613.046,191.887l10.983-21.096c-0.117-0.051-0.233-0.105-0.345-0.171l-10.969,21.07l-28.891-17.432
		c-0.05,0.117-0.11,0.229-0.173,0.343l28.887,17.428L554.18,304.129c0.105,0.079,0.212,0.149,0.309,0.24l58.381-112.142l34.5,20.817
		c0.059-0.114,0.119-0.224,0.192-0.33L613.046,191.887z"/>
	<path fill="#FFFFFF" d="M410.89,392.106c0.078,0.091,0.163,0.171,0.233,0.273c0.004,0.006,0.008,0.016,0.014,0.022l100.142-70.52
		c-0.124-0.064-0.243-0.133-0.361-0.215L410.89,392.106z"/>
	<path fill="#FFFFFF" d="M651.617,165.677l0.851-43.573c-0.131-0.019-0.256-0.047-0.383-0.081l-0.852,43.678l-22.271,1.469
		c0.016,0.126,0.04,0.253,0.041,0.381l22.221-1.465l-0.879,45.087c0.129-0.004,0.256,0.008,0.384,0.017l0.879-45.131l22.236-1.465
		c0.015-0.13,0.03-0.26,0.06-0.388L651.617,165.677z"/>
	<path fill="#FFFFFF" d="M533.697,275.95l45.578-99.743c-0.117-0.046-0.228-0.112-0.343-0.17l-45.479,99.528l-27.929-44.077
		c-0.081,0.104-0.166,0.207-0.262,0.302l27.999,44.191L515,315.948c0.105,0.078,0.213,0.15,0.311,0.241l18.197-39.822l17.285,27.282
		c0.125-0.047,0.25-0.087,0.378-0.12L533.697,275.95z"/>
	<path fill="#FFFFFF" d="M705.465,78.907c1.598-1.116,1.989-3.314,0.872-4.911c-1.114-1.596-3.314-1.986-4.911-0.871
		c-1.596,1.113-1.988,3.313-0.871,4.909c0.514,0.736,1.26,1.203,2.069,1.398c0.124,0.029,0.249,0.054,0.378,0.071
		C703.839,79.609,704.717,79.43,705.465,78.907z"/>
	<path fill="#FFFFFF" d="M722.337,128.625c-1.114-1.596-3.314-1.986-4.911-0.87c-0.722,0.502-1.182,1.229-1.382,2.019
		c-0.033,0.124-0.063,0.248-0.081,0.375c-0.121,0.854,0.059,1.753,0.591,2.517c1.116,1.597,3.314,1.987,4.911,0.873
		C723.062,132.422,723.451,130.224,722.337,128.625z"/>
	<path fill="#FFFFFF" d="M654.965,121.511c1.074-0.749,1.586-1.986,1.481-3.202c-0.012-0.132-0.019-0.266-0.045-0.398
		c-0.095-0.458-0.279-0.904-0.562-1.311c-1.117-1.599-3.315-1.988-4.913-0.872c-1.596,1.116-1.986,3.313-0.87,4.912
		c0.505,0.723,1.235,1.184,2.028,1.383c0.127,0.033,0.252,0.062,0.383,0.081C653.315,122.221,654.207,122.04,654.965,121.511z"/>
	<path fill="#FFFFFF" d="M675.316,162.076c-0.753,0.528-1.228,1.298-1.412,2.13c-0.029,0.128-0.045,0.257-0.06,0.388
		c-0.087,0.816,0.094,1.668,0.602,2.394c1.115,1.597,3.312,1.989,4.909,0.873c1.599-1.116,1.988-3.315,0.874-4.912
		c-0.589-0.843-1.48-1.337-2.423-1.466c-0.131-0.016-0.262-0.028-0.392-0.03C676.69,161.436,675.957,161.63,675.316,162.076z"/>
	<path fill="#FFFFFF" d="M627.496,170.482c0.993-0.693,1.519-1.805,1.508-2.932c-0.001-0.128-0.025-0.254-0.041-0.381
		c-0.065-0.557-0.249-1.105-0.592-1.599c-1.117-1.597-3.315-1.986-4.913-0.871c-1.597,1.116-1.987,3.313-0.872,4.91
		c0.299,0.427,0.679,0.761,1.099,1.009c0.111,0.066,0.228,0.12,0.345,0.171C625.125,171.287,626.438,171.221,627.496,170.482z"/>
	<path fill="#FFFFFF" d="M650.346,211.173c-0.657,0.022-1.315,0.223-1.896,0.629c-0.362,0.253-0.654,0.567-0.889,0.913
		c-0.073,0.105-0.134,0.216-0.192,0.33c-0.602,1.131-0.577,2.545,0.209,3.667c1.116,1.597,3.313,1.986,4.91,0.872
		c1.598-1.116,1.989-3.314,0.873-4.912c-0.632-0.905-1.611-1.406-2.632-1.482C650.602,211.181,650.475,211.169,650.346,211.173z"/>
	<path fill="#FFFFFF" d="M582.583,175.817c0.466-0.326,0.816-0.749,1.069-1.217c0.062-0.113,0.123-0.226,0.173-0.343
		c0.436-1.071,0.342-2.332-0.369-3.35c-1.115-1.598-3.313-1.987-4.911-0.872c-1.597,1.114-1.988,3.313-0.872,4.91
		c0.335,0.48,0.774,0.837,1.26,1.092c0.115,0.058,0.226,0.124,0.343,0.17C580.337,176.623,581.578,176.521,582.583,175.817z"/>
	<path fill="#FFFFFF" d="M554.18,304.129c-0.861-0.651-1.97-0.873-3.009-0.6c-0.128,0.033-0.253,0.073-0.378,0.12
		c-0.259,0.1-0.512,0.223-0.751,0.389c-1.597,1.115-1.988,3.312-0.872,4.911c1.116,1.597,3.313,1.987,4.91,0.872
		c1.598-1.116,1.989-3.313,0.873-4.911c-0.138-0.199-0.294-0.38-0.465-0.541C554.392,304.278,554.285,304.208,554.18,304.129z"/>
	<path fill="#FFFFFF" d="M510.896,315.884c-1.598,1.114-1.986,3.314-0.871,4.911c0.247,0.355,0.555,0.64,0.892,0.872
		c0.118,0.082,0.237,0.15,0.361,0.215c1.129,0.595,2.538,0.566,3.657-0.215c1.598-1.116,1.988-3.314,0.872-4.912
		c-0.146-0.211-0.315-0.398-0.497-0.566c-0.098-0.091-0.205-0.163-0.311-0.241C513.816,315.075,512.17,314.994,510.896,315.884z"/>
	<path fill="#FFFFFF" d="M505.525,231.488c0.955-1.191,1.071-2.903,0.153-4.215c-1.115-1.6-3.314-1.988-4.911-0.872
		c-1.596,1.115-1.987,3.312-0.87,4.91c1.114,1.597,3.312,1.986,4.909,0.872c0.168-0.119,0.315-0.253,0.457-0.393
		C505.359,231.695,505.444,231.592,505.525,231.488z"/>
	<path fill="#FFFFFF" d="M410.89,392.106c-1.167-1.354-3.181-1.645-4.678-0.599c-1.598,1.115-1.987,3.313-0.873,4.91
		c1.117,1.597,3.315,1.988,4.912,0.872c1.59-1.11,1.981-3.292,0.886-4.888c-0.006-0.006-0.01-0.016-0.014-0.022
		C411.053,392.278,410.968,392.197,410.89,392.106z"/>
</g>
<g>
	<path fill="#FFFFFF" d="M266.812,404.688c0.245-0.008,0.487,0.007,0.727,0.031l-0.318-2.653L266.812,404.688z"/>
	<path fill="#FFFFFF" d="M262.779,406.863c0.113-0.152,0.236-0.298,0.366-0.439L39.941,181.86c-0.125,0.142-0.255,0.278-0.396,0.409
		L262.779,406.863z"/>
	<path fill="#FFFFFF" d="M265.583,404.898L125.55,79.435c-0.148,0.075-0.283,0.168-0.44,0.235c-0.02,0.009-0.045,0.011-0.065,0.02
		l139.994,325.375c0-0.002,0.001-0.001,0.002-0.003C265.22,404.988,265.402,404.952,265.583,404.898z"/>
	<path fill="#FFFFFF" d="M267.221,402.065l0.318,2.653c0.193,0.021,0.384,0.035,0.572,0.078l-0.57-4.773l32.521-208.007
		c-0.191,0.034-0.382,0.04-0.573,0.054l-32.192,205.911l-24.606-205.709c-0.187,0.038-0.371,0.045-0.556,0.065l24.843,207.688
		l-0.738,4.716c0.19-0.03,0.381-0.047,0.571-0.055L267.221,402.065z"/>
	<path fill="#FFFFFF" d="M262.081,411.84c1.01,2.653,3.974,3.91,6.621,2.815c2.645-1.096,3.971-4.131,2.959-6.781
		c-0.619-1.628-1.981-2.723-3.55-3.077c-0.188-0.043-0.379-0.057-0.572-0.078c-0.24-0.024-0.482-0.039-0.727-0.031
		c-0.19,0.008-0.381,0.024-0.571,0.055c-0.22,0.033-0.437,0.093-0.657,0.156c-0.182,0.054-0.364,0.09-0.543,0.163
		c0,0.002-0.001,0.001-0.002,0.003c-0.749,0.309-1.38,0.789-1.893,1.359c-0.13,0.142-0.253,0.287-0.366,0.439
		C261.758,408.27,261.427,410.132,262.081,411.84z"/>
	<path fill="#FFFFFF" d="M31.385,180.455c1.01,2.648,3.976,3.909,6.622,2.812c0.585-0.243,1.092-0.591,1.538-0.998
		c0.141-0.131,0.271-0.267,0.396-0.409c1.267-1.438,1.74-3.496,1.023-5.373c-1.011-2.649-3.975-3.909-6.621-2.812
		C31.698,174.77,30.374,177.806,31.385,180.455z"/>
	<path fill="#FFFFFF" d="M125.55,79.435c2.338-1.241,3.472-4.055,2.521-6.548c-1.012-2.649-3.977-3.907-6.622-2.812
		c-2.646,1.095-3.972,4.131-2.959,6.781c1.002,2.629,3.927,3.88,6.555,2.834c0.021-0.009,0.045-0.011,0.065-0.02
		C125.267,79.603,125.402,79.51,125.55,79.435z"/>
	<path fill="#FFFFFF" d="M242.691,192.273c0.315-0.065,0.631-0.154,0.943-0.284c2.646-1.098,3.97-4.133,2.958-6.784
		c-1.011-2.647-3.974-3.908-6.619-2.812c-2.646,1.094-3.972,4.131-2.961,6.782c0.825,2.154,2.939,3.364,5.123,3.163
		C242.321,192.318,242.504,192.311,242.691,192.273z"/>
	<path fill="#FFFFFF" d="M301.098,191.712c2.647-1.095,3.972-4.131,2.961-6.782c-1.013-2.649-3.974-3.908-6.622-2.812
		c-2.646,1.097-3.973,4.132-2.96,6.78c0.81,2.12,2.869,3.324,5.013,3.173c0.191-0.014,0.382-0.02,0.573-0.054
		C300.408,191.952,300.756,191.853,301.098,191.712z"/>
</g>
<g>
	
		<line fill="none" stroke="#171714" stroke-width="0.25" stroke-miterlimit="10" x1="205.11" y1="210.135" x2="159.078" y2="318.278"/>
	
		<line fill="none" stroke="#171714" stroke-width="0.25" stroke-miterlimit="10" x1="159.078" y1="318.278" x2="251.204" y2="292.336"/>
	
		<line fill="none" stroke="#171714" stroke-width="0.25" stroke-miterlimit="10" x1="251.007" y1="293.961" x2="294.227" y2="168.174"/>
	
		<line fill="none" stroke="#171714" stroke-width="0.25" stroke-miterlimit="10" x1="204.004" y1="212.474" x2="320.079" y2="213.322"/>
	
		<line fill="none" stroke="#171714" stroke-width="0.25" stroke-miterlimit="10" x1="320.079" y1="213.322" x2="401.853" y2="136.689"/>
	
		<line fill="none" stroke="#171714" stroke-width="0.25" stroke-miterlimit="10" x1="401.036" y1="136.619" x2="499.364" y2="188.879"/>
	
		<line fill="none" stroke="#171714" stroke-width="0.25" stroke-miterlimit="10" x1="499.364" y1="188.879" x2="558.569" y2="251.215"/>
	
		<line fill="none" stroke="#171714" stroke-width="0.25" stroke-miterlimit="10" x1="558.569" y1="251.215" x2="635.25" y2="215.359"/>
	
		<line fill="none" stroke="#171714" stroke-width="0.25" stroke-miterlimit="10" x1="636.345" y1="214.474" x2="615.381" y2="299.281"/>
	
		<line fill="none" stroke="#171714" stroke-width="0.25" stroke-miterlimit="10" x1="615.381" y1="299.281" x2="698.383" y2="376.055"/>
	
		<line fill="none" stroke="#171714" stroke-width="0.25" stroke-miterlimit="10" x1="698.383" y1="376.055" x2="602.557" y2="439.453"/>
	
		<line fill="none" stroke="#171714" stroke-width="0.25" stroke-miterlimit="10" x1="602.557" y1="439.453" x2="659.894" y2="517.247"/>
	
		<line fill="none" stroke="#171714" stroke-width="0.25" stroke-miterlimit="10" x1="659.376" y1="514.711" x2="591.15" y2="554.254"/>
	
		<line fill="none" stroke="#171714" stroke-width="0.25" stroke-miterlimit="10" x1="591.15" y1="554.254" x2="565.609" y2="636.035"/>
	
		<line fill="none" stroke="#171714" stroke-width="0.25" stroke-miterlimit="10" x1="565.609" y1="636.035" x2="450.997" y2="630.337"/>
	
		<line fill="none" stroke="#171714" stroke-width="0.25" stroke-miterlimit="10" x1="451.033" y1="629.601" x2="356.748" y2="673.409"/>
	
		<line fill="none" stroke="#171714" stroke-width="0.25" stroke-miterlimit="10" x1="356.748" y1="673.409" x2="302.564" y2="616.748"/>
	
		<line fill="none" stroke="#171714" stroke-width="0.25" stroke-miterlimit="10" x1="305.274" y1="615.276" x2="205.294" y2="631.207"/>
	
		<line fill="none" stroke="#171714" stroke-width="0.25" stroke-miterlimit="10" x1="205.294" y1="631.207" x2="204.153" y2="524.773"/>
	
		<line fill="none" stroke="#171714" stroke-width="0.25" stroke-miterlimit="10" x1="204.153" y1="524.773" x2="139.567" y2="486.481"/>
	
		<line fill="none" stroke="#171714" stroke-width="0.25" stroke-miterlimit="10" x1="139.567" y1="486.481" x2="187.305" y2="398.319"/>
	
		<line fill="none" stroke="#171714" stroke-width="0.25" stroke-miterlimit="10" x1="187.305" y1="398.319" x2="159.078" y2="318.278"/>
	
		<line fill="none" stroke="#171714" stroke-width="0.25" stroke-miterlimit="10" x1="251.007" y1="293.961" x2="148.029" y2="396.044"/>
	
		<line fill="none" stroke="#171714" stroke-width="0.25" stroke-miterlimit="10" x1="148.029" y1="396.044" x2="198.005" y2="459.764"/>
	
		<line fill="none" stroke="#171714" stroke-width="0.25" stroke-miterlimit="10" x1="198.005" y1="459.764" x2="155.58" y2="531.264"/>
	
		<line fill="none" stroke="#171714" stroke-width="0.25" stroke-miterlimit="10" x1="155.874" y1="528.827" x2="257.654" y2="532.067"/>
	
		<line fill="none" stroke="#171714" stroke-width="0.25" stroke-miterlimit="10" x1="257.654" y1="532.067" x2="323.3" y2="657.006"/>
	
		<line fill="none" stroke="#171714" stroke-width="0.25" stroke-miterlimit="10" x1="323.877" y1="656.632" x2="368.216" y2="630.992"/>
	
		<line fill="none" stroke="#171714" stroke-width="0.25" stroke-miterlimit="10" x1="367.636" y1="631.054" x2="436.432" y2="682.217"/>
	
		<line fill="none" stroke="#171714" stroke-width="0.25" stroke-miterlimit="10" x1="435.895" y1="682.087" x2="483.579" y2="598.929"/>
	
		<line fill="none" stroke="#171714" stroke-width="0.25" stroke-miterlimit="10" x1="483.428" y1="599.247" x2="576.73" y2="625.845"/>
	
		<line fill="none" stroke="#171714" stroke-width="0.25" stroke-miterlimit="10" x1="576.73" y1="625.845" x2="610.045" y2="534.29"/>
	
		<line fill="none" stroke="#171714" stroke-width="0.25" stroke-miterlimit="10" x1="610.045" y1="534.29" x2="667.463" y2="481.905"/>
	
		<line fill="none" stroke="#171714" stroke-width="0.25" stroke-miterlimit="10" x1="667.463" y1="481.905" x2="627.669" y2="402.114"/>
	
		<line fill="none" stroke="#171714" stroke-width="0.25" stroke-miterlimit="10" x1="627.669" y1="402.114" x2="673.771" y2="286.564"/>
	
		<line fill="none" stroke="#171714" stroke-width="0.25" stroke-miterlimit="10" x1="673.771" y1="286.564" x2="611.858" y2="280.728"/>
	
		<line fill="none" stroke="#171714" stroke-width="0.25" stroke-miterlimit="10" x1="611.858" y1="280.728" x2="602.869" y2="191.476"/>
	
		<line fill="none" stroke="#171714" stroke-width="0.25" stroke-miterlimit="10" x1="602.869" y1="191.476" x2="500.188" y2="216.143"/>
	
		<line fill="none" stroke="#171714" stroke-width="0.25" stroke-miterlimit="10" x1="501.399" y1="217.034" x2="458.574" y2="137.779"/>
	
		<line fill="none" stroke="#171714" stroke-width="0.25" stroke-miterlimit="10" x1="458.574" y1="137.779" x2="384.592" y2="184.042"/>
	
		<line fill="none" stroke="#171714" stroke-width="0.25" stroke-miterlimit="10" x1="384.592" y1="184.042" x2="294.105" y2="168.302"/>
	
		<line fill="none" stroke="#171714" stroke-width="0.25" stroke-miterlimit="10" x1="211.005" y1="263.358" x2="277.234" y2="212.278"/>
	
		<line fill="none" stroke="#171714" stroke-width="0.25" stroke-miterlimit="10" x1="211.005" y1="263.358" x2="204.004" y2="212.474"/>
	
		<line fill="none" stroke="#171714" stroke-width="0.25" stroke-miterlimit="10" x1="294.227" y1="168.174" x2="336.917" y2="135.223"/>
	
		<line fill="none" stroke="#171714" stroke-width="0.25" stroke-miterlimit="10" x1="365.924" y1="199.752" x2="336.917" y2="135.223"/>
	
		<line fill="none" stroke="#171714" stroke-width="0.25" stroke-miterlimit="10" x1="211.005" y1="263.358" x2="159.078" y2="318.278"/>
	
		<line fill="none" stroke="#171714" stroke-width="0.25" stroke-miterlimit="10" x1="175.168" y1="367.511" x2="131.253" y2="362.202"/>
	
		<line fill="none" stroke="#171714" stroke-width="0.25" stroke-miterlimit="10" x1="131.253" y1="362.202" x2="148.029" y2="396.044"/>
	
		<line fill="none" stroke="#171714" stroke-width="0.25" stroke-miterlimit="10" x1="155.58" y1="531.264" x2="208.087" y2="632.048"/>
	
		<line fill="none" stroke="#171714" stroke-width="0.25" stroke-miterlimit="10" x1="323.3" y1="657.006" x2="356.748" y2="673.409"/>
	
		<line fill="none" stroke="#171714" stroke-width="0.25" stroke-miterlimit="10" x1="483.579" y1="598.929" x2="591.15" y2="554.254"/>
	
		<line fill="none" stroke="#171714" stroke-width="0.25" stroke-miterlimit="10" x1="667.463" y1="481.905" x2="698.383" y2="376.055"/>
	
		<line fill="none" stroke="#171714" stroke-width="0.25" stroke-miterlimit="10" x1="458.574" y1="137.779" x2="602.869" y2="191.476"/>
	
		<line fill="none" stroke="#171714" stroke-width="0.25" stroke-miterlimit="10" x1="558.569" y1="251.215" x2="615.381" y2="299.281"/>
	
		<line fill="none" stroke="#171714" stroke-width="0.25" stroke-miterlimit="10" x1="365.924" y1="199.752" x2="479.75" y2="179.61"/>
	
		<line fill="none" stroke="#171714" stroke-width="0.25" stroke-miterlimit="10" x1="673.771" y1="286.564" x2="685.704" y2="318.804"/>
	
		<line fill="none" stroke="#171714" stroke-width="0.25" stroke-miterlimit="10" x1="685.704" y1="318.804" x2="609.027" y2="352.154"/>
	
		<line fill="none" stroke="#171714" stroke-width="0.25" stroke-miterlimit="10" x1="609.027" y1="352.154" x2="627.669" y2="402.114"/>
	
		<line fill="none" stroke="#171714" stroke-width="0.25" stroke-miterlimit="10" x1="356.386" y1="671.285" x2="435.864" y2="710.919"/>
	
		<line fill="none" stroke="#171714" stroke-width="0.25" stroke-miterlimit="10" x1="435.864" y1="710.919" x2="501.506" y2="632.646"/>
</g>
<circle fill="#171714" cx="356.705" cy="179.069" r="3.806"/>
<circle fill="#171714" cx="319.412" cy="213.392" r="3.805"/>
<circle fill="#171714" cx="211.214" cy="262.052" r="3.807"/>
<circle fill="#171714" cx="250.479" cy="293.263" r="3.805"/>
<circle fill="#171714" cx="176.548" cy="368.127" r="3.807"/>
<circle fill="#171714" cx="148.03" cy="396.044" r="3.805"/>
<circle fill="#171714" cx="187.305" cy="398.32" r="3.805"/>
<circle fill="#171714" cx="171.649" cy="427.042" r="3.806"/>
<circle fill="#171714" cx="139.569" cy="486.482" r="3.806"/>
<circle fill="#171714" cx="198.005" cy="459.763" r="3.805"/>
<path fill="#171714" d="M174.892,505.593c-0.252,2.088-2.148,3.575-4.236,3.323c-2.084-0.252-3.573-2.148-3.321-4.237
	c0.252-2.084,2.15-3.572,4.234-3.32C173.657,501.61,175.144,503.508,174.892,505.593z"/>
<circle fill="#171714" cx="156.717" cy="530.108" r="3.806"/>
<circle fill="#171714" cx="204.39" cy="524.493" r="3.807"/>
<circle fill="#171714" cx="256.619" cy="532.438" r="3.806"/>
<path fill="#171714" d="M209.747,630.652c-0.252,2.088-2.148,3.575-4.235,3.323c-2.087-0.253-3.573-2.148-3.321-4.237
	c0.252-2.084,2.147-3.572,4.234-3.32C208.512,626.67,209.999,628.567,209.747,630.652z"/>
<circle fill="#171714" cx="302.888" cy="616.189" r="3.806"/>
<path fill="#171714" d="M372.519,632.52c-0.252,2.087-2.148,3.576-4.237,3.323c-2.084-0.252-3.573-2.15-3.32-4.236
	c0.252-2.087,2.15-3.573,4.234-3.321C371.285,628.537,372.771,630.434,372.519,632.52z"/>
<path fill="#171714" d="M439.948,682.327c-0.252,2.09-2.149,3.576-4.236,3.323c-2.086-0.252-3.575-2.147-3.323-4.236
	c0.253-2.085,2.15-3.573,4.237-3.32C438.712,678.346,440.2,680.243,439.948,682.327z"/>
<path fill="#171714" d="M439.454,710.959c-0.253,2.089-2.15,3.575-4.235,3.323c-2.088-0.253-3.574-2.148-3.322-4.237
	c0.252-2.084,2.147-3.573,4.236-3.32C438.217,706.977,439.706,708.874,439.454,710.959z"/>
<circle fill="#171714" cx="449.968" cy="630.214" r="3.805"/>
<path fill="#171714" d="M487.544,600.992c-0.252,2.085-2.148,3.574-4.237,3.321c-2.084-0.252-3.572-2.15-3.32-4.234
	c0.252-2.089,2.149-3.575,4.234-3.323C486.309,597.008,487.796,598.904,487.544,600.992z"/>
<circle fill="#171714" cx="576.457" cy="625.591" r="3.807"/>
<circle fill="#171714" cx="565.623" cy="635.412" r="3.805"/>
<circle fill="#171714" cx="604.825" cy="546.41" r="3.806"/>
<path fill="#171714" d="M663.028,516.096c-0.252,2.087-2.149,3.576-4.235,3.324c-2.087-0.253-3.573-2.15-3.32-4.237
	c0.252-2.085,2.147-3.573,4.234-3.32C661.792,512.114,663.28,514.011,663.028,516.096z"/>
<circle fill="#171714" cx="601.993" cy="440.947" r="3.806"/>
<circle fill="#171714" cx="667.15" cy="480.979" r="3.806"/>
<circle fill="#171714" cx="626.991" cy="401.922" r="3.806"/>
<circle fill="#171714" cx="697.579" cy="376.569" r="3.806"/>
<circle fill="#171714" cx="609.188" cy="352.776" r="3.806"/>
<circle fill="#171714" cx="685.957" cy="319.265" r="3.806"/>
<circle fill="#171714" cx="673.307" cy="286.82" r="3.807"/>
<circle fill="#171714" cx="615.369" cy="299.602" r="3.804"/>
<circle fill="#171714" cx="654.11" cy="333.743" r="3.805"/>
<path fill="#171714" d="M615.636,281.185c-0.252,2.086-2.149,3.573-4.234,3.321c-2.089-0.252-3.575-2.148-3.323-4.235
	c0.252-2.087,2.147-3.575,4.237-3.322C614.399,277.201,615.888,279.098,615.636,281.185z"/>
<path fill="#171714" d="M562.819,251.327c-0.252,2.086-2.15,3.574-4.235,3.322c-2.088-0.252-3.575-2.149-3.323-4.236
	c0.253-2.086,2.149-3.574,4.237-3.322C561.582,247.344,563.071,249.241,562.819,251.327z"/>
<circle fill="#171714" cx="602.704" cy="192.233" r="3.807"/>
<circle fill="#171714" cx="501.134" cy="216.066" r="3.807"/>
<circle fill="#171714" cx="481.037" cy="179.751" r="3.806"/>
<circle fill="#171714" cx="459.062" cy="138.51" r="3.806"/>
<circle fill="#171714" cx="366.605" cy="199.512" r="3.806"/>
<circle fill="#171714" cx="384.512" cy="184.364" r="3.806"/>
<circle fill="#171714" cx="356.673" cy="672.057" r="3.806"/>
<path fill="#171714" d="M327.805,658.181c-0.252,2.085-2.148,3.573-4.236,3.32c-2.084-0.252-3.573-2.149-3.321-4.233
	c0.252-2.089,2.15-3.575,4.234-3.323C326.57,654.196,328.057,656.093,327.805,658.181z"/>
<circle fill="#171714" cx="337.082" cy="135.761" r="3.805"/>
<circle fill="#171714" cx="294.33" cy="167.462" r="3.807"/>
<circle fill="#171714" cx="278.176" cy="213.506" r="3.805"/>
<circle fill="#171714" cx="204.099" cy="212.466" r="3.806"/>
<circle fill="#171714" cx="159.078" cy="318.278" r="3.807"/>
<circle fill="#171714" cx="131.34" cy="363.549" r="3.805"/>
<circle fill="#171714" cx="401.524" cy="137.349" r="3.806"/>
<line fill="none" stroke="#B2B2B0" stroke-width="0.25" stroke-miterlimit="10" x1="565.609" y1="636.035" x2="754.688" y2="764.049"/>
<line fill="none" stroke="#B2B2B0" stroke-width="0.25" stroke-miterlimit="10" x1="753.558" y1="762.695" x2="659.894" y2="517.247"/>
<line fill="none" stroke="#B2B2B0" stroke-width="0.25" stroke-miterlimit="10" x1="604.826" y1="546.41" x2="754.688" y2="764.049"/>
<line fill="none" stroke="#B2B2B0" stroke-width="0.25" stroke-miterlimit="10" x1="754.688" y1="764.049" x2="435.864" y2="710.919"/>
<line fill="none" stroke="#B2B2B0" stroke-width="0.25" stroke-miterlimit="10" x1="750.911" y1="763.592" x2="450.997" y2="630.337"/>
<circle fill="#171714" cx="754.688" cy="764.049" r="3.805"/>
<line fill="none" stroke="#B2B2B0" stroke-width="0.25" stroke-miterlimit="10" x1="152.938" y1="529.651" x2="80.892" y2="512.199"/>
<line fill="none" stroke="#B2B2B0" stroke-width="0.25" stroke-miterlimit="10" x1="77.417" y1="511.779" x2="88.468" y2="595.416"/>
<line fill="none" stroke="#B2B2B0" stroke-width="0.25" stroke-miterlimit="10" x1="88.468" y1="595.416" x2="57.92" y2="595.25"/>
<line fill="none" stroke="#B2B2B0" stroke-width="0.25" stroke-miterlimit="10" x1="460.833" y1="140.671" x2="518.246" y2="122.6"/>
<line fill="none" stroke="#B2B2B0" stroke-width="0.25" stroke-miterlimit="10" x1="518.246" y1="122.6" x2="498.746" y2="68.631"/>
<line fill="none" stroke="#B2B2B0" stroke-width="0.25" stroke-miterlimit="10" x1="498.746" y1="68.631" x2="460.833" y2="140.671"/>
<line fill="none" stroke="#B2B2B0" stroke-width="0.25" stroke-miterlimit="10" x1="498.746" y1="68.631" x2="574.344" y2="43.11"/>
<circle fill="#171714" cx="57.919" cy="595.25" r="3.806"/>
<path fill="#171714" d="M92.246,595.872c-0.252,2.089-2.148,3.575-4.235,3.323c-2.086-0.253-3.573-2.147-3.321-4.236
	c0.252-2.084,2.148-3.573,4.234-3.321C91.011,591.89,92.498,593.788,92.246,595.872z"/>
<circle fill="#171714" cx="77.415" cy="511.779" r="3.806"/>
<circle fill="#171714" cx="337.082" cy="135.761" r="3.805"/>
<circle fill="#171714" cx="294.33" cy="167.462" r="3.807"/>
<circle fill="#171714" cx="278.176" cy="213.506" r="3.805"/>
<circle fill="#171714" cx="204.099" cy="212.466" r="3.806"/>
<circle fill="#171714" cx="159.078" cy="318.278" r="3.807"/>
<circle fill="#171714" cx="131.34" cy="363.549" r="3.805"/>
<circle fill="#171714" cx="401.524" cy="137.349" r="3.806"/>
<path fill="#171714" d="M639.776,216.007c-0.252,2.087-2.15,3.574-4.234,3.322c-2.089-0.253-3.575-2.149-3.323-4.236
	c0.253-2.086,2.148-3.574,4.236-3.322C638.539,212.023,640.028,213.92,639.776,216.007z"/>
<path fill="#171714" d="M521,121c0.873,1.911,0.028,4.17-1.882,5.042c-1.914,0.873-4.171,0.029-5.044-1.882
	c-0.872-1.912-0.031-4.17,1.884-5.043C517.867,118.246,520.127,119.088,521,121z"/>
<circle fill="#171714" cx="574.475" cy="43.827" r="3.807"/>
<circle fill="#171714" cx="498.772" cy="68.639" r="3.807"/>
</svg>
